<?xml version="1.0" encoding="UTF-8" standalone="no"?>
<svg width="15px" height="10px" viewBox="0 0 15 10" version="1.1" xmlns="http://www.w3.org/2000/svg" xmlns:xlink="http://www.w3.org/1999/xlink">
    <!-- Generator: Sketch 40.3 (33839) - http://www.bohemiancoding.com/sketch -->
    <title>Shape</title>
    <desc>Created with Sketch.</desc>
    <defs></defs>
    <g id="Page-1" stroke="none" stroke-width="1" fill="none" fill-rule="evenodd">
        <g id="Scholarship" transform="translate(-1121.000000, -47.000000)" fill="#FFFFFF">
            <g id="Header" transform="translate(150.000000, 32.000000)">
                <g id="Upload" transform="translate(946.000000, 0.000000)">
                    <g id="icon" transform="translate(24.000000, 12.000000)">
                        <path d="M7.66666667,3 C5.82822283,3 4.2869595,4.3511212 3.91666667,6.14655693 C2.27651733,6.36116763 1,7.79771829 1,9.55173843 C1,11.4531381 2.49531533,13.00002 4.33333333,13.00002 L12.6666667,13.00002 C14.5046847,13.00002 16,11.4531381 16,9.55173843 C16,8.185081 15.2291723,7.01029974 14.1041667,6.45366951 C13.7994583,4.96650843 12.5174427,3.86207039 11,3.86207039 C10.7120283,3.86207039 10.4148232,3.90923082 10.125,3.98599301 C9.46457617,3.3829627 8.62707633,3 7.66666667,3 L7.66666667,3 Z M7.66666667,4.03448447 C8.47041,4.03448447 9.11618917,4.34910396 9.640625,4.90733074 C9.77949528,5.05572223 9.99038427,5.10443788 10.1770833,5.03125336 C10.3910952,4.94719633 10.72176,4.89655486 11,4.89655486 C12.114764,4.89655486 13.0422048,5.74826662 13.171875,6.85237707 C13.1934858,7.04582679 13.3182858,7.21032982 13.4947917,7.27802432 C14.3819597,7.61494212 15,8.49658151 15,9.55173843 C15,10.8979303 13.967982,11.9655355 12.6666667,11.9655355 L4.33333333,11.9655355 C3.032018,11.9655355 2,10.8979303 2,9.55173843 C2,8.20554655 3.03201917,7.13793788 4.33333333,7.13793788 C4.5921506,7.13909237 4.80904794,6.93575078 4.83333333,6.66918711 C4.97615017,5.19128983 6.19301383,4.03448447 7.66666667,4.03448447 L7.66666667,4.03448447 Z M8.44270833,6.44828157 C8.33007253,6.46227613 8.22538424,6.51547535 8.14583333,6.59914389 L6.97916667,7.80604589 C6.83973705,7.93385879 6.78054964,8.13125654 6.82558535,8.31825964 C6.87062106,8.50526275 7.0124123,8.65086332 7.19350963,8.6960685 C7.37460695,8.74127367 7.56498175,8.67858776 7.6875,8.53340916 L8,8.21013276 L8,10.4138088 C7.99744986,10.600345 8.09218765,10.7738515 8.24793642,10.8678894 C8.4036852,10.9619274 8.5963148,10.9619274 8.75206358,10.8678894 C8.90781235,10.7738515 9.00255014,10.600345 9,10.4138088 L9,8.21013276 L9.3125,8.53340916 C9.43501825,8.67858776 9.62539305,8.74127367 9.80649037,8.6960685 C9.9875877,8.65086332 10.1293789,8.50526275 10.1744146,8.31825964 C10.2194504,8.13125654 10.1602629,7.93385879 10.0208333,7.80604589 L8.85416667,6.59914389 C8.74659339,6.48631089 8.59495896,6.43071371 8.44270833,6.44828157 L8.44270833,6.44828157 Z" id="Shape"></path>
                    </g>
                </g>
            </g>
        </g>
    </g>
</svg>
